# xmcd
#
# Track frame offsets:
#	150
#	25360
#	42520
#	70410
#	92022
#	111552
#	133850
#	158620
#	181062
#	203092
#	228560
#	247712
#
# Disc length: 3730 seconds
#
# Revision: 1
# Processed by: cddbd v1.5.1PL0 Copyright (c) Steve Scherf et al.
# Submitted via: CDex 1.50Beta5
#
DISCID=a10e900c
DTITLE=平野孝幸 - ピアノ・インテリア 尾崎豊作品集
DYEAR=1900
DGENRE=Other
TTITLE0=I LOVE YOU
TTITLE1=自由への扉
TTITLE2=シェリー
TTITLE3=ドーナツ・ショップ
TTITLE4=OH MY LITTLE GIRL
TTITLE5=ダンスホール
TTITLE6=Forget-me-not
TTITLE7=僕が僕であるために
TTITLE8=ふたつの心
TTITLE9=十七歳の地図
TTITLE10=理由
TTITLE11=卒業
EXTD=
EXTT0=
EXTT1=
EXTT2=
EXTT3=
EXTT4=
EXTT5=
EXTT6=
EXTT7=
EXTT8=
EXTT9=
EXTT10=
EXTT11=
PLAYORDER=
